<?xml version="1.0" standalone="no"?>
<!DOCTYPE svg PUBLIC "-//W3C//DTD SVG 20010904//EN"
 "http://www.w3.org/TR/2001/REC-SVG-20010904/DTD/svg10.dtd">
<svg version="1.0" xmlns="http://www.w3.org/2000/svg"
 width="853.000000pt" height="853.000000pt" viewBox="0 0 853.000000 853.000000"
 preserveAspectRatio="xMidYMid meet">
<metadata>
Created by potrace 1.11, written by Peter Selinger 2001-2013
</metadata>
<g transform="translate(0.000000,853.000000) scale(0.100000,-0.100000)"
fill="#000000" stroke="none">
<path d="M5671 4870 c-8 -6 -8 -106 0 -114 3 -3 21 -7 40 -9 l34 -3 2 -366 c1
-385 7 -443 47 -512 24 -44 102 -114 132 -120 10 -2 31 -9 47 -15 15 -6 69 -9
120 -8 101 4 152 22 238 84 26 18 49 33 52 33 4 0 9 -22 13 -49 l6 -48 204 -1
c149 0 204 3 205 11 4 48 4 99 -1 105 -3 5 -17 9 -32 9 -16 1 -32 1 -38 2 -6
1 -11 181 -12 503 l-3 502 -195 1 c-107 1 -202 -1 -211 -3 -12 -2 -15 -16 -14
-58 1 -30 5 -57 8 -61 4 -3 21 -6 39 -7 l33 -1 0 -360 c0 -329 -2 -363 -18
-397 -28 -55 -61 -73 -135 -71 -52 1 -68 5 -89 24 -53 50 -52 45 -53 500 0
232 -3 425 -6 428 -6 7 -404 8 -413 1z"/>
<path d="M2129 4853 c-1 -10 -2 -267 -3 -571 -1 -359 3 -556 9 -562 15 -11
142 -7 155 6 9 9 14 440 6 607 -2 60 9 80 29 53 8 -11 15 -27 15 -35 0 -9 11
-37 25 -64 14 -26 22 -47 18 -47 -5 0 -3 -4 2 -8 6 -4 16 -23 24 -42 43 -111
63 -167 67 -184 2 -11 8 -22 12 -25 5 -3 12 -17 16 -31 8 -29 21 -61 45 -109
9 -19 16 -38 16 -42 0 -4 3 -11 8 -15 4 -4 7 -15 7 -23 0 -32 32 -46 108 -47
53 0 72 3 72 13 0 7 5 13 11 13 8 0 8 4 2 13 -6 7 -9 227 -8 547 0 294 -1 543
-3 553 -4 14 -17 17 -88 17 l-84 0 -1 -87 c-1 -49 -1 -195 -1 -325 0 -197 -3
-236 -14 -231 -8 3 -14 12 -14 20 0 8 -7 28 -16 45 -9 17 -18 42 -20 56 -3 15
-10 33 -17 40 -11 14 -18 34 -20 64 -1 9 -5 14 -9 12 -4 -3 -9 0 -9 5 -2 14
-4 21 -12 44 -17 43 -20 53 -23 66 -1 8 -8 17 -15 22 -7 4 -14 13 -15 21 -2 7
-5 20 -6 28 -2 8 -7 21 -11 28 -5 6 -5 12 0 12 4 0 2 4 -5 8 -7 5 -14 17 -16
28 -2 11 -15 47 -29 80 l-25 59 -91 3 c-81 2 -91 1 -92 -15z"/>
<path d="M3411 4851 c-23 -23 -28 -80 -10 -98 7 -7 33 -9 64 -7 l52 5 16 -38
c14 -33 16 -94 15 -429 0 -473 2 -460 -96 -454 -43 2 -62 -15 -62 -55 0 -59
13 -62 227 -60 135 1 197 5 205 13 16 16 13 82 -4 93 -7 5 -35 8 -63 7 -81 -5
-79 -14 -79 464 0 472 -1 463 74 454 79 -10 110 34 73 99 -10 17 -20 20 -75
17 -123 -7 -184 -7 -250 1 -60 8 -69 6 -87 -12z"/>
<path d="M4659 4855 c-116 -30 -236 -128 -296 -240 -100 -189 -100 -460 -1
-648 66 -124 192 -220 326 -248 85 -17 243 -7 317 21 69 27 175 98 200 136 16
24 16 27 0 45 -17 18 -19 17 -74 -32 -63 -56 -156 -105 -216 -114 -66 -10
-168 -7 -220 6 -213 52 -350 259 -344 519 5 223 96 388 257 467 l76 38 130 0
c126 0 134 -1 196 -31 36 -17 90 -54 121 -82 54 -49 57 -51 73 -33 9 9 16 21
16 26 0 5 -23 30 -52 57 -96 89 -215 130 -368 127 -52 -1 -116 -7 -141 -14z"/>
<path d="M7616 4858 c-81 -8 -176 -35 -176 -51 0 -4 -4 -6 -8 -3 -5 3 -20 -6
-35 -20 -15 -14 -27 -22 -27 -19 0 16 -41 -40 -61 -82 -28 -60 -29 -67 -30
-129 -1 -104 21 -168 75 -218 49 -47 140 -102 224 -136 146 -60 213 -106 240
-163 29 -65 2 -150 -61 -194 -37 -25 -48 -28 -120 -26 -67 1 -84 5 -117 28
-23 16 -47 45 -60 72 -21 45 -42 132 -34 144 8 14 -24 17 -68 8 -66 -14 -107
-60 -111 -124 -2 -28 2 -63 9 -80 24 -59 99 -110 214 -144 14 -4 77 -6 140 -5
117 2 232 26 264 56 8 7 30 24 50 38 68 49 116 155 116 256 0 70 -36 145 -97
202 -31 28 -62 52 -69 52 -7 0 -14 3 -16 8 -1 4 -37 22 -78 40 -140 62 -165
75 -212 106 -55 37 -83 84 -82 140 1 73 17 105 52 106 7 0 10 5 7 10 -9 15 39
30 95 30 38 0 55 -6 80 -26 38 -32 67 -88 76 -144 l7 -42 41 4 c55 7 114 35
133 65 18 28 21 115 4 121 -6 2 -11 8 -11 13 0 5 -9 18 -19 28 -59 59 -199 92
-335 79z"/>
<path d="M473 4845 c-2 -7 -3 -47 -1 -90 l3 -79 38 -1 c21 -1 43 -7 50 -14 8
-8 12 -95 12 -299 1 -158 5 -303 9 -322 14 -64 38 -130 47 -130 5 0 9 -6 9
-14 0 -7 19 -32 41 -55 76 -75 190 -111 358 -112 230 -1 360 75 416 241 16 47
20 100 24 372 3 174 8 319 11 322 3 3 23 6 44 8 20 1 39 5 42 9 4 7 8 111 5
155 -1 21 -3 21 -236 20 -202 -1 -235 -3 -236 -16 -3 -43 0 -152 5 -157 3 -3
19 -7 36 -8 62 -5 61 1 58 -320 -3 -289 -3 -292 -27 -326 -30 -45 -66 -60
-136 -60 -67 0 -111 22 -140 71 -19 33 -20 53 -21 322 -1 320 -3 310 66 311
l41 1 -3 90 -3 91 -254 0 c-180 1 -254 -2 -258 -10z"/>
<path d="M4695 4756 c-193 -61 -303 -250 -290 -499 10 -194 91 -336 231 -408
66 -33 71 -34 183 -34 105 0 121 3 171 27 55 27 150 106 150 125 0 6 -9 18
-20 28 -20 18 -21 18 -65 -26 -74 -75 -122 -94 -240 -94 -89 0 -106 3 -151 27
-155 82 -232 298 -185 518 24 110 97 211 185 258 46 24 62 27 151 27 89 -1
106 -4 151 -27 29 -15 70 -46 93 -69 l41 -42 24 22 25 23 -40 39 c-59 58 -107
86 -174 104 -71 18 -184 19 -240 1z"/>
</g>
</svg>
